<?xml version="1.0" encoding="UTF-8" standalone="no"?>
<!DOCTYPE svg PUBLIC "-//W3C//DTD SVG 1.1//EN" "http://www.w3.org/Graphics/SVG/1.1/DTD/svg11.dtd">
<svg xmlns="http://www.w3.org/2000/svg" version="1.1" viewBox="0 0 420 594">
<path fill="#002aff" d="
  M 169.56 253.53
  L 171.18 253.60
  A 0.87 0.70 -7.8 0 1 171.88 254.02
  Q 172.64 255.67 174.09 256.72
  A 0.66 0.62 -46.0 0 0 174.88 256.68
  Q 188.49 245.37 206.19 243.73
  A 0.77 0.70 4.1 0 0 206.85 243.21
  Q 207.40 241.37 206.30 239.67
  A 0.58 0.58 -34.1 0 1 206.45 238.89
  Q 208.13 237.69 207.70 236.27
  Q 207.50 235.65 207.49 235.59
  Q 205.57 226.38 205.50 219.25
  Q 205.47 216.58 207.40 215.30
  Q 209.10 214.17 211.25 214.71
  Q 214.39 215.50 214.25 219.25
  Q 213.91 228.10 211.96 236.92
  A 1.01 1.01 21.3 0 0 212.44 238.01
  Q 214.10 238.99 213.00 240.75
  Q 212.35 241.80 212.87 243.23
  A 0.84 0.77 -6.4 0 0 213.56 243.73
  Q 231.26 245.15 244.63 256.67
  A 0.98 0.84 55.2 0 0 245.48 256.89
  Q 246.69 256.52 247.00 255.50
  Q 247.74 253.09 249.76 253.39
  A 0.82 0.72 20.1 0 0 250.53 253.09
  Q 253.82 248.18 260.06 240.31
  Q 261.80 238.12 264.14 237.64
  Q 266.62 237.13 268.26 238.97
  Q 269.83 240.71 268.96 243.09
  Q 268.45 244.49 266.64 246.14
  Q 260.60 251.62 253.73 256.05
  A 1.02 0.85 78.5 0 0 253.32 256.81
  L 253.25 258.44
  A 0.76 0.63 -8.3 0 1 252.70 259.05
  Q 250.93 259.53 249.99 261.06
  A 0.76 0.70 41.8 0 0 250.07 261.89
  Q 261.29 275.35 262.81 292.95
  A 1.15 1.10 81.6 0 0 264.13 293.98
  L 267.02 293.38
  A 1.05 1.03 -31.4 0 1 267.88 293.58
  Q 269.70 295.03 271.96 294.38
  Q 273.62 293.90 273.70 293.88
  Q 281.25 292.39 288.61 292.49
  Q 290.86 292.53 291.56 294.67
  Q 292.85 298.65 290.25 300.31
  Q 288.75 301.26 285.45 301.11
  Q 277.86 300.77 270.47 298.92
  Q 268.92 298.53 268.29 299.86
  A 1.05 1.04 -63.9 0 1 266.87 300.35
  Q 264.99 299.38 263.39 299.98
  A 0.87 0.76 84.0 0 0 262.89 300.69
  Q 261.30 318.21 250.13 331.69
  A 0.89 0.81 -36.5 0 0 249.96 332.54
  Q 250.54 334.08 252.25 334.43
  A 1.11 0.83 -2.1 0 1 252.99 334.94
  Q 253.43 335.86 253.37 336.93
  A 0.90 0.81 -73.3 0 0 253.74 337.71
  Q 259.06 341.13 266.81 347.69
  Q 269.11 349.63 269.12 352.01
  Q 269.13 354.46 267.08 355.72
  Q 265.48 356.71 263.54 355.97
  Q 262.34 355.51 260.90 353.98
  Q 255.21 347.92 250.79 340.57
  A 1.03 1.03 -30.5 0 0 249.39 340.21
  Q 247.84 341.12 247.25 338.96
  Q 246.83 337.42 245.47 336.90
  A 0.91 0.78 -52.6 0 0 244.62 337.08
  Q 231.46 348.39 214.05 349.78
  A 1.24 0.96 12.1 0 0 213.22 350.18
  Q 212.26 351.43 213.19 353.31
  Q 213.96 354.89 212.41 355.99
  A 0.78 0.73 -24.2 0 0 212.10 356.74
  Q 213.85 365.20 213.99 373.81
  Q 214.03 376.24 213.12 377.48
  Q 211.69 379.43 209.11 378.92
  Q 207.40 378.58 206.44 377.26
  Q 205.41 375.82 205.50 374.00
  Q 205.94 365.53 207.83 357.27
  Q 208.14 355.92 206.99 355.41
  A 1.20 1.19 -60.3 0 1 206.51 353.63
  Q 207.28 352.56 207.01 350.84
  A 1.18 1.16 -1.2 0 0 205.96 349.85
  Q 187.86 348.05 175.01 336.88
  A 0.97 0.94 37.2 0 0 173.57 337.05
  L 171.68 340.00
  A 0.62 0.59 23.9 0 1 170.98 340.25
  Q 169.50 339.80 168.50 341.50
  Q 165.02 347.40 158.84 353.97
  Q 157.14 355.78 155.54 356.14
  Q 152.90 356.72 151.41 354.58
  Q 150.14 352.76 150.81 350.74
  Q 151.44 348.87 153.31 347.31
  Q 161.19 340.75 166.09 337.52
  A 1.17 0.77 84.3 0 0 166.49 336.76
  L 166.68 335.29
  A 0.91 0.64 -9.4 0 1 167.30 334.68
  Q 169.03 334.12 169.76 332.52
  A 0.87 0.76 39.2 0 0 169.62 331.68
  Q 158.96 318.87 156.85 300.95
  Q 156.55 298.44 154.42 299.80
  Q 152.33 301.13 150.81 299.39
  A 0.92 0.81 62.1 0 0 150.02 299.09
  Q 139.59 301.11 132.75 301.25
  Q 128.57 301.33 127.86 298.02
  Q 127.32 295.45 128.97 293.86
  Q 130.61 292.27 133.75 292.50
  Q 143.76 293.22 149.00 294.50
  Q 150.34 294.83 152.10 293.56
  A 0.90 0.90 -52.3 0 1 152.96 293.45
  Q 154.66 294.14 156.45 293.80
  A 0.69 0.63 87.5 0 0 156.97 293.18
  Q 158.07 276.84 168.14 264.09
  Q 168.21 264.01 169.03 263.08
  Q 171.32 260.53 167.50 259.26
  Q 166.04 258.77 166.48 257.07
  A 1.04 1.03 -67.0 0 0 166.02 255.92
  Q 159.03 251.61 153.19 246.31
  Q 151.43 244.72 150.82 242.96
  Q 150.16 241.05 151.36 239.22
  Q 153.06 236.64 156.03 237.73
  Q 157.65 238.32 159.51 240.37
  Q 164.79 246.21 168.81 253.00
  A 1.08 0.78 71.1 0 0 169.56 253.53
  Z
  M 217.33 255.84
  Q 215.83 255.56 214.31 255.37
  A 0.94 0.92 22.7 0 0 213.48 255.70
  Q 211.06 258.69 212.38 262.58
  Q 213.51 265.95 213.77 269.73
  A 1.20 1.19 4.2 0 0 214.72 270.82
  Q 219.85 271.87 224.93 275.08
  A 1.05 1.03 -50.3 0 0 226.19 274.95
  Q 229.12 272.20 232.97 270.15
  Q 235.77 268.66 236.27 265.36
  A 0.95 0.94 23.4 0 0 235.92 264.48
  Q 227.51 257.74 217.33 255.84
  Z
  M 186.48 270.00
  Q 189.96 272.09 193.77 275.01
  A 1.17 1.17 46.2 0 0 195.15 275.04
  Q 199.40 272.06 205.41 270.87
  A 0.68 0.67 86.6 0 0 205.95 270.26
  Q 206.26 265.65 207.43 261.98
  Q 208.32 259.17 206.45 256.09
  A 1.20 1.20 -19.7 0 0 205.26 255.53
  Q 192.74 257.33 183.71 264.50
  A 0.92 0.87 -23.4 0 0 183.36 265.31
  Q 183.77 268.37 186.48 270.00
  Z
  M 168.94 293.43
  Q 172.26 295.18 175.49 294.30
  Q 178.48 293.49 178.59 293.47
  Q 180.89 293.09 183.19 292.76
  A 0.78 0.74 -86.3 0 0 183.81 292.19
  Q 185.08 286.95 187.95 282.08
  A 1.18 1.17 43.4 0 0 187.91 280.82
  Q 184.84 276.28 182.44 272.56
  Q 181.11 270.50 178.25 270.49
  A 1.11 1.03 -68.9 0 0 177.43 270.89
  Q 169.83 280.20 168.47 292.54
  A 0.89 0.88 -73.1 0 0 168.94 293.43
  Z
  M 236.37 292.67
  Q 240.75 293.24 243.93 294.23
  Q 247.63 295.39 250.73 293.56
  A 1.19 1.18 -19.2 0 0 251.30 292.39
  Q 249.73 280.28 242.25 270.68
  A 1.06 1.04 -23.3 0 0 241.25 270.29
  Q 239.21 270.64 237.70 272.00
  Q 236.89 272.72 235.53 275.13
  Q 233.86 278.08 231.75 280.74
  A 1.04 1.03 -42.1 0 0 231.69 281.92
  Q 234.88 286.99 235.75 292.08
  A 0.71 0.71 88.3 0 0 236.37 292.67
  Z
  M 227.51 296.83
  A 17.66 17.66 0.0 0 0 209.85 279.17
  A 17.66 17.66 0.0 0 0 192.19 296.83
  A 17.66 17.66 0.0 0 0 209.85 314.49
  A 17.66 17.66 0.0 0 0 227.51 296.83
  Z
  M 181.81 300.54
  Q 179.33 301.04 177.03 299.99
  Q 173.11 298.20 169.61 299.81
  A 2.05 2.05 -17.3 0 0 168.45 302.02
  Q 170.52 313.99 177.44 323.10
  A 0.87 0.84 66.8 0 0 178.24 323.44
  Q 181.82 322.92 182.94 320.69
  Q 184.90 316.78 188.04 313.01
  A 0.91 0.89 -41.4 0 0 188.12 311.95
  Q 185.88 308.40 184.57 304.32
  Q 184.55 304.25 184.17 302.13
  Q 183.81 300.13 181.81 300.54
  Z
  M 237.37 321.39
  L 241.25 323.39
  A 0.78 0.58 -55.2 0 0 242.07 323.11
  Q 249.91 313.57 251.20 301.24
  A 0.92 0.91 -68.1 0 0 250.86 300.43
  Q 248.03 298.23 245.00 299.25
  Q 240.86 300.64 236.74 300.74
  A 1.01 0.99 -84.9 0 0 235.79 301.55
  Q 234.70 307.03 231.77 311.62
  A 1.61 1.34 46.8 0 0 231.87 313.23
  L 236.69 320.57
  Q 237.15 321.27 237.37 321.39
  Z
  M 233.56 323.69
  Q 229.70 321.68 225.83 318.54
  A 0.64 0.63 -42.3 0 0 225.08 318.51
  Q 220.77 321.30 214.57 322.99
  A 1.04 1.02 84.8 0 0 213.82 323.90
  Q 213.46 328.24 212.47 331.57
  Q 211.46 334.95 213.22 337.79
  A 0.76 0.75 -19.0 0 0 213.94 338.14
  Q 226.48 336.68 235.86 329.31
  A 1.07 1.01 -20.3 0 0 236.26 328.50
  Q 236.23 325.07 233.56 323.69
  Z
  M 183.57 329.01
  Q 193.07 336.65 205.61 338.10
  A 1.15 1.15 -71.3 0 0 206.72 337.55
  Q 208.30 334.87 207.27 331.61
  Q 206.17 328.14 205.97 323.87
  A 1.19 1.19 3.9 0 0 204.99 322.75
  Q 199.61 321.74 195.39 318.91
  A 1.83 1.83 41.4 0 0 193.16 319.05
  Q 190.24 321.62 187.58 322.85
  Q 183.94 324.51 183.29 328.28
  A 0.76 0.76 -66.1 0 0 183.57 329.01
  Z"
/>
</svg>
